HIERARCHY
ROOT Hips
{
	OFFSET 0.000000 0.000000 0.000000
	CHANNELS 6 Xposition Yposition Zposition Xrotation Yrotation Zrotation
	JOINT Thigh.L
	{
		OFFSET 0.055779 0.027134 -0.095986
		CHANNELS 3 Xrotation Yrotation Zrotation
		JOINT Shin.L
		{
			OFFSET 0.059988 0.006797 -0.414329
			CHANNELS 3 Xrotation Yrotation Zrotation
			JOINT Foot.L
			{
				OFFSET -0.042440 0.032455 -0.440099
				CHANNELS 3 Xrotation Yrotation Zrotation
				JOINT Toe.L
				{
					OFFSET 0.048599 -0.127218 -0.064645
					CHANNELS 3 Xrotation Yrotation Zrotation
					End Site
					{
						OFFSET 0.000000 0.050000 0.000000
					}
				}
			}
		}
	}
	JOINT Thigh.R
	{
		OFFSET -0.060897 0.021427 -0.108696
		CHANNELS 3 Xrotation Yrotation Zrotation
		JOINT Shin.R
		{
			OFFSET -0.048979 0.014886 -0.395550
			CHANNELS 3 Xrotation Yrotation Zrotation
			JOINT Foot.R
			{
				OFFSET 0.014173 0.020483 -0.449207
				CHANNELS 3 Xrotation Yrotation Zrotation
				JOINT Toe.R
				{
					OFFSET -0.039900 -0.128039 -0.064473
					CHANNELS 3 Xrotation Yrotation Zrotation
					End Site
					{
						OFFSET 0.000000 0.050000 0.000000
					}
				}
			}
		}
	}
	JOINT Spine
	{
		OFFSET -0.002647 0.027755 0.115450
		CHANNELS 3 Xrotation Yrotation Zrotation
		JOINT Spine.2
		{
			OFFSET 0.009307 0.006589 0.143570
			CHANNELS 3 Xrotation Yrotation Zrotation
			JOINT Chest
			{
				OFFSET -0.011068 -0.023952 0.057105
				CHANNELS 3 Xrotation Yrotation Zrotation
				JOINT Neck
				{
					OFFSET -0.012378 0.026291 0.171901
					CHANNELS 3 Xrotation Yrotation Zrotation
					JOINT Head
					{
						OFFSET 0.025680 -0.021117 0.170199
						CHANNELS 3 Xrotation Yrotation Zrotation
						End Site
						{
							OFFSET 0.000000 0.050000 0.000000
						}
					}
				}
				JOINT Clavicle.L
				{
					OFFSET 0.047930 0.004632 0.088511
					CHANNELS 3 Xrotation Yrotation Zrotation
					JOINT UpperArm.L
					{
						OFFSET 0.128531 0.014185 0.059001
						CHANNELS 3 Xrotation Yrotation Zrotation
						JOINT ForeArm.L
						{
							OFFSET 0.270763 0.043646 -0.075895
							CHANNELS 3 Xrotation Yrotation Zrotation
							JOINT Hand.L
							{
								OFFSET 0.274560 0.000642 0.022798
								CHANNELS 3 Xrotation Yrotation Zrotation
								JOINT Thumb1.L
								{
									OFFSET 0.154588 0.000280 0.009930
									CHANNELS 3 Xrotation Yrotation Zrotation
									JOINT Thumb2.L
									{
										OFFSET 0.029897 0.000070 0.002482
										CHANNELS 3 Xrotation Yrotation Zrotation
										End Site
										{
											OFFSET 0.024914 0.000058 0.002069
										}
									}
								}
								JOINT Index1.L
								{
									OFFSET 0.137588 0.000280 0.009930
									CHANNELS 3 Xrotation Yrotation Zrotation
									JOINT Index2.L
									{
										OFFSET 0.029897 0.000070 0.002482
										CHANNELS 3 Xrotation Yrotation Zrotation
										JOINT Index3.L
										{
											OFFSET 0.021924 0.000051 0.001820
											CHANNELS 3 Xrotation Yrotation Zrotation
											End Site
											{
												OFFSET 0.017938 0.000042 0.001489
											}
										}
									}
								}
								JOINT Middle1.L
								{
									OFFSET 0.119588 0.000280 0.009930
									CHANNELS 3 Xrotation Yrotation Zrotation
									JOINT Middle2.L
									{
										OFFSET 0.030894 0.000072 0.002565
										CHANNELS 3 Xrotation Yrotation Zrotation
										JOINT Middle3.L
										{
											OFFSET 0.021924 0.000051 0.001820
											CHANNELS 3 Xrotation Yrotation Zrotation
											End Site
											{
												OFFSET 0.017938 0.000042 0.001489
											}
										}
									}
								}
								JOINT Ring1.L
								{
									OFFSET 0.101588 0.000280 0.009930
									CHANNELS 3 Xrotation Yrotation Zrotation
									JOINT Ring2.L
									{
										OFFSET 0.028900 0.000068 0.002400
										CHANNELS 3 Xrotation Yrotation Zrotation
										JOINT Ring3.L
										{
											OFFSET 0.019931 0.000047 0.001655
											CHANNELS 3 Xrotation Yrotation Zrotation
											End Site
											{
												OFFSET 0.016942 0.000040 0.001407
											}
										}
									}
								}
								JOINT Pinky1.L
								{
									OFFSET 0.085588 0.000280 0.009930
									CHANNELS 3 Xrotation Yrotation Zrotation
									JOINT Pinky2.L
									{
										OFFSET 0.023918 0.000056 0.001986
										CHANNELS 3 Xrotation Yrotation Zrotation
										JOINT Pinky3.L
										{
											OFFSET 0.016942 0.000040 0.001407
											CHANNELS 3 Xrotation Yrotation Zrotation
											End Site
											{
												OFFSET 0.013952 0.000033 0.001158
											}
										}
									}
								}
							}
						}
					}
				}
				JOINT Clavicle.R
				{
					OFFSET -0.048995 0.010856 0.087622
					CHANNELS 3 Xrotation Yrotation Zrotation
					JOINT UpperArm.R
					{
						OFFSET -0.111469 0.010693 0.055087
						CHANNELS 3 Xrotation Yrotation Zrotation
						JOINT ForeArm.R
						{
							OFFSET -0.289295 0.028041 -0.039698
							CHANNELS 3 Xrotation Yrotation Zrotation
							JOINT Hand.R
							{
								OFFSET -0.270826 0.014224 -0.005326
								CHANNELS 3 Xrotation Yrotation Zrotation
								JOINT Thumb1.R
								{
									OFFSET -0.154812 0.006293 -0.002356
									CHANNELS 3 Xrotation Yrotation Zrotation
									JOINT Thumb2.R
									{
										OFFSET -0.029953 0.001573 -0.000589
										CHANNELS 3 Xrotation Yrotation Zrotation
										End Site
										{
											OFFSET -0.024961 0.001311 -0.000491
										}
									}
								}
								JOINT Index1.R
								{
									OFFSET -0.137812 0.006293 -0.002356
									CHANNELS 3 Xrotation Yrotation Zrotation
									JOINT Index2.R
									{
										OFFSET -0.029953 0.001573 -0.000589
										CHANNELS 3 Xrotation Yrotation Zrotation
										JOINT Index3.R
										{
											OFFSET -0.021965 0.001154 -0.000432
											CHANNELS 3 Xrotation Yrotation Zrotation
											End Site
											{
												OFFSET -0.017972 0.000944 -0.000353
											}
										}
									}
								}
								JOINT Middle1.R
								{
									OFFSET -0.119812 0.006293 -0.002356
									CHANNELS 3 Xrotation Yrotation Zrotation
									JOINT Middle2.R
									{
										OFFSET -0.030951 0.001626 -0.000609
										CHANNELS 3 Xrotation Yrotation Zrotation
										JOINT Middle3.R
										{
											OFFSET -0.021965 0.001154 -0.000432
											CHANNELS 3 Xrotation Yrotation Zrotation
											End Site
											{
												OFFSET -0.017972 0.000944 -0.000353
											}
										}
									}
								}
								JOINT Ring1.R
								{
									OFFSET -0.101812 0.006293 -0.002356
									CHANNELS 3 Xrotation Yrotation Zrotation
									JOINT Ring2.R
									{
										OFFSET -0.028955 0.001521 -0.000569
										CHANNELS 3 Xrotation Yrotation Zrotation
										JOINT Ring3.R
										{
											OFFSET -0.019969 0.001049 -0.000393
											CHANNELS 3 Xrotation Yrotation Zrotation
											End Site
											{
												OFFSET -0.016973 0.000891 -0.000334
											}
										}
									}
								}
								JOINT Pinky1.R
								{
									OFFSET -0.085812 0.006293 -0.002356
									CHANNELS 3 Xrotation Yrotation Zrotation
									JOINT Pinky2.R
									{
										OFFSET -0.023962 0.001259 -0.000471
										CHANNELS 3 Xrotation Yrotation Zrotation
										JOINT Pinky3.R
										{
											OFFSET -0.016973 0.000891 -0.000334
											CHANNELS 3 Xrotation Yrotation Zrotation
											End Site
											{
												OFFSET -0.013978 0.000734 -0.000275
											}
										}
									}
								}
							}
						}
					}
				}
			}
		}
	}
}
MOTION
Frames: 4
Frame Time: 0.04166667
0.041270 1.278716 1.054771 -5.715446 0.766428 6.456499 12.928160 -2.067497 0.614845 29.550115 -1.085114 -19.686415 -9.265682 -0.933289 8.567325 -0.479910 -0.838440 -0.795878 -23.826574 -3.666126 4.030563 24.136853 -1.249731 -0.327006 1.857029 -2.394295 -10.682797 -0.931295 -1.738371 0.517842 10.973179 -1.086399 -4.741588 -3.027656 -3.251387 -1.963977 4.460299 -0.466334 -2.553075 3.935216 2.637470 4.554223 2.694402 1.388514 5.514912 0.702986 20.083418 -4.928105 21.777020 43.002932 -31.219196 14.036262 -2.735831 -27.752733 -2.946468 -2.767526 -11.173757 0.000000 0.000000 0.000000 0.000000 0.000000 0.000000 0.000000 0.000000 0.000000 0.000000 0.000000 0.000000 0.000000 0.000000 0.000000 0.000000 0.000000 0.000000 0.000000 0.000000 0.000000 0.000000 0.000000 0.000000 0.000000 0.000000 0.000000 0.000000 0.000000 0.000000 0.000000 0.000000 0.000000 0.000000 0.000000 0.000000 0.000000 0.000000 0.000000 0.000000 0.000000 0.000000 0.704256 -22.287056 4.748712 25.835304 -44.451641 20.906930 7.557522 1.247609 23.659170 -4.081336 -2.738789 7.607102 0.000000 0.000000 0.000000 0.000000 0.000000 0.000000 0.000000 0.000000 0.000000 0.000000 0.000000 0.000000 0.000000 0.000000 0.000000 0.000000 0.000000 0.000000 0.000000 0.000000 0.000000 0.000000 0.000000 0.000000 0.000000 0.000000 0.000000 0.000000 0.000000 0.000000 0.000000 0.000000 0.000000 0.000000 0.000000 0.000000 0.000000 0.000000 0.000000 0.000000 0.000000 0.000000
0.044294 1.296250 1.059774 -4.958199 1.104025 6.011743 8.076763 -3.334306 0.370365 39.235900 -0.409424 -17.188526 -1.721800 2.157535 7.457801 -0.293418 -0.868751 -0.829311 -22.298274 -4.581764 3.576998 23.584387 -1.315896 -0.156286 1.092108 -0.464985 -9.769010 -0.924401 -1.482092 0.528876 10.641145 -1.642975 -3.904149 -3.160504 -3.122726 -2.163200 4.618981 -0.398786 -2.396840 3.724027 2.484820 4.231495 2.937500 1.373863 5.264482 0.913529 20.389720 -4.671194 22.416056 43.772993 -30.057293 14.861382 -2.604354 -26.779874 -3.590044 -2.162316 -10.678256 0.000000 0.000000 0.000000 0.000000 0.000000 0.000000 0.000000 0.000000 0.000000 0.000000 0.000000 0.000000 0.000000 0.000000 0.000000 0.000000 0.000000 0.000000 0.000000 0.000000 0.000000 0.000000 0.000000 0.000000 0.000000 0.000000 0.000000 0.000000 0.000000 0.000000 0.000000 0.000000 0.000000 0.000000 0.000000 0.000000 0.000000 0.000000 0.000000 0.000000 0.000000 0.000000 0.966672 -22.247543 5.101119 25.383849 -44.241228 20.817864 8.239025 1.182665 24.365208 -5.859382 -2.862954 7.503275 0.000000 0.000000 0.000000 0.000000 0.000000 0.000000 0.000000 0.000000 0.000000 0.000000 0.000000 0.000000 0.000000 0.000000 0.000000 0.000000 0.000000 0.000000 0.000000 0.000000 0.000000 0.000000 0.000000 0.000000 0.000000 0.000000 0.000000 0.000000 0.000000 0.000000 0.000000 0.000000 0.000000 0.000000 0.000000 0.000000 0.000000 0.000000 0.000000 0.000000 0.000000 0.000000
0.047195 1.308572 1.065225 -4.775489 1.320393 5.559484 2.957396 -4.097752 -0.036352 47.746146 0.454137 -13.924322 3.223502 3.376148 7.364772 -0.209192 -0.803662 -0.904740 -19.682019 -5.330332 3.062071 22.775191 -1.360683 0.246141 -0.944978 1.500844 -8.570263 -1.016493 -1.328010 0.572304 10.801841 -1.956458 -2.821760 -3.457780 -2.908668 -2.230729 4.816970 -0.329753 -2.134819 3.576474 2.259207 3.645497 3.228794 1.170397 4.884338 0.976072 20.551556 -4.516255 22.965864 44.280678 -28.997625 16.042555 -2.514007 -25.987458 -4.176622 -1.492807 -10.379379 0.000000 0.000000 0.000000 0.000000 0.000000 0.000000 0.000000 0.000000 0.000000 0.000000 0.000000 0.000000 0.000000 0.000000 0.000000 0.000000 0.000000 0.000000 0.000000 0.000000 0.000000 0.000000 0.000000 0.000000 0.000000 0.000000 0.000000 0.000000 0.000000 0.000000 0.000000 0.000000 0.000000 0.000000 0.000000 0.000000 0.000000 0.000000 0.000000 0.000000 0.000000 0.000000 1.063401 -22.105635 5.339487 24.970039 -44.115053 20.696456 8.797336 1.273899 25.482516 -7.085593 -2.727223 7.649485 0.000000 0.000000 0.000000 0.000000 0.000000 0.000000 0.000000 0.000000 0.000000 0.000000 0.000000 0.000000 0.000000 0.000000 0.000000 0.000000 0.000000 0.000000 0.000000 0.000000 0.000000 0.000000 0.000000 0.000000 0.000000 0.000000 0.000000 0.000000 0.000000 0.000000 0.000000 0.000000 0.000000 0.000000 0.000000 0.000000 0.000000 0.000000 0.000000 0.000000 0.000000 0.000000
0.049751 1.318234 1.071122 -4.887731 1.425110 4.803588 -2.347059 -4.333478 -0.681188 54.683227 1.609736 -10.770816 3.838106 2.695532 8.215301 -0.178354 -0.827855 -0.999882 -16.296508 -5.895593 2.424664 21.014533 -1.184728 1.033838 -2.880002 2.674888 -7.516164 -1.136928 -1.162168 0.636535 11.230308 -2.148890 -1.418222 -3.817311 -2.714583 -2.294062 4.963074 -0.243990 -1.804349 3.478266 2.050889 2.938362 3.299872 0.968324 4.405596 1.052132 20.752218 -4.348293 23.190780 44.678876 -27.658792 17.219035 -2.291074 -25.196930 -4.603180 -1.054106 -10.031914 0.000000 0.000000 0.000000 0.000000 0.000000 0.000000 0.000000 0.000000 0.000000 0.000000 0.000000 0.000000 0.000000 0.000000 0.000000 0.000000 0.000000 0.000000 0.000000 0.000000 0.000000 0.000000 0.000000 0.000000 0.000000 0.000000 0.000000 0.000000 0.000000 0.000000 0.000000 0.000000 0.000000 0.000000 0.000000 0.000000 0.000000 0.000000 0.000000 0.000000 0.000000 0.000000 1.069690 -21.966610 5.503466 24.300862 -43.726773 20.485450 9.598508 1.393342 26.950581 -7.722093 -2.268155 7.684500 0.000000 0.000000 0.000000 0.000000 0.000000 0.000000 0.000000 0.000000 0.000000 0.000000 0.000000 0.000000 0.000000 0.000000 0.000000 0.000000 0.000000 0.000000 0.000000 0.000000 0.000000 0.000000 0.000000 0.000000 0.000000 0.000000 0.000000 0.000000 0.000000 0.000000 0.000000 0.000000 0.000000 0.000000 0.000000 0.000000 0.000000 0.000000 0.000000 0.000000 0.000000 0.000000
